<svg width="20" height="20" viewBox="0 0 20 20" fill="none" xmlns="http://www.w3.org/2000/svg"><g><g opacity=".2"><path d="M10.5896 5.93864c3.7995 1.01807 6.1058 4.77236 5.135 8.39556-1.0933 4.0804-6.29798 7.3435-8.88186 4.5605C6.01967 18.0082 5.80843 17.0333 5.95296 15.7336 5.97792 15.5091 5.99947 15.3622 6.06577 14.9399 6.22776 13.9081 6.22599 13.5002 6.01192 13.1518c-.20658-.3363-.57746-.4224-1.67791-.4362C4.28019 12.7149 4.28019 12.7149 4.22591 12.7142 2.67773 12.6922 1.92684 12.4348 1.54351 11.3506.274887 7.76224 6.32303 4.79543 10.5896 5.93864z" fill="#000"/><path fill-rule="evenodd" clip-rule="evenodd" d="M13.8426 4.43006C13.3311 4.40927 12.8607 4.09221 12.5375 3.48435c-.5574-1.04832-.679-2.566943.1107-2.986855C13.438.0775839 14.6289 1.02762 15.1863 2.07593 15.4869 2.64121 15.5076 3.17152 15.2927 3.59351 15.4711 3.68323 15.6244 3.82716 15.7253 4.01687 15.7308 4.02728 15.7362 4.03778 15.7413 4.04837l4.0923 8.39983C19.9869 12.7628 19.8635 13.1423 19.5545 13.3065 19.2452 13.471 18.8612 13.3618 18.6847 13.0592L13.9771 4.98894C13.8746 4.81319 13.8318 4.61905 13.8426 4.43006z" fill="#000"/></g><path fill-rule="evenodd" clip-rule="evenodd" d="M14.7246 13.3342C15.6954 9.71095 13.3891 5.95668 9.58956 4.93861 5.32303 3.7954-.725113 6.76221.543511 10.3505.926836 11.4348 1.67773 11.6922 3.22591 11.7141L3.33401 11.7156C4.43446 11.7294 4.80534 11.8155 5.01192 12.1517 5.22599 12.5002 5.22776 12.9081 5.06577 13.9399 4.99947 14.3622 4.97792 14.509 4.95296 14.7336 4.80843 16.0333 5.01967 17.0081 5.84274 17.8946c2.58388 2.783 7.78856-.48 8.88186-4.5604zM1.48632 10.0172C.577621 7.44693 5.70337 4.93259 9.33074 5.90454c3.27746.87819 5.25256 4.09322 4.42796 7.17076-.9232 3.4453-5.28696 6.1812-7.18312 4.1389C5.98161 16.5745 5.83147 15.8816 5.94683 14.8441 5.96952 14.64 5.98985 14.5015 6.05367 14.095c.20013-1.2748.19769-1.8361-.1897-2.4667C5.3993 10.8719 4.80502 10.734 3.34657 10.7156L3.24008 10.7142C2.08097 10.6978 1.67812 10.5597 1.48632 10.0172z" fill="#000"/><path d="M4.75 9.5c-.69036.0-1.25-.55964-1.25-1.25S4.05964 7 4.75 7 6 7.55964 6 8.25 5.44036 9.5 4.75 9.5z" fill="#000"/><path d="M8.75 9.5c-.69036.0-1.25-.55964-1.25-1.25S8.05964 7 8.75 7 10 7.55964 10 8.25 9.44036 9.5 8.75 9.5z" fill="#000"/><path d="M11.25 12.5c-.6904.0-1.25-.5596-1.25-1.25S10.5596 10 11.25 10s1.25.5596 1.25 1.25-.5596 1.25-1.25 1.25z" fill="#000"/><path d="M9.75 16c-.69036.0-1.25-.5596-1.25-1.25s.55964-1.25 1.25-1.25c.6904.0 1.25.5596 1.25 1.25S10.4404 16 9.75 16z" fill="#000"/><path d="M13.3707 3.60451C13.8605 3.34411 14.466 3.52923 14.7253 4.01686 14.7308 4.02727 14.7362 4.03777 14.7413 4.04836l4.0923 8.39984C18.9869 12.7628 18.8635 13.1422 18.5545 13.3065 18.2452 13.471 17.8612 13.3618 17.6847 13.0592L12.9771 4.98893C12.6993 4.5127 12.8602 3.90144 13.3364 3.62364 13.3477 3.61704 13.3592 3.61066 13.3707 3.60451z" fill="#000"/><path fill-rule="evenodd" clip-rule="evenodd" d="M11.5375 3.48434c.4863.91463 1.3059 1.17088 2.0972.7501C14.4262 3.81362 14.6726 2.99053 14.1863 2.07592 13.6289 1.0276 12.438.0775719 11.6482.497483 10.8585.917395 10.9801 2.43602 11.5375 3.48434zM12.4204 3.01486C12.2581 2.70947 12.1315 2.26269 12.1007 1.8773 12.0806 1.62643 12.1063 1.45889 12.1151 1.40204 12.1171 1.38903 12.1182 1.38181 12.1176 1.38073 12.1183 1.38172 12.1245 1.38462 12.1356 1.38985 12.1866 1.41372 12.3408 1.48594 12.5391 1.64416 12.8414 1.88525 13.141 2.24 13.3034 2.54539 13.5316 2.97464 13.4668 3.19118 13.1653 3.3515 12.8641 3.51165 12.6488 3.44435 12.4204 3.01486z" fill="#000"/></g></svg>