<svg version="1.0" xmlns="http://www.w3.org/2000/svg" width="700pt" height="700pt" viewBox="0 0 700 700"><g transform="translate(0.000000,700.000000) scale(0.100000,-0.100000)" fill="#000" stroke="none"><path d="M4137 6849c-46-11-114-56-152-101-195-231-91-869 188-1148 68-68 173-126 257-141l66-11 2-43c3-71 22-113 183-387 84-145 346-594 582-998s440-753 452-775c31-54 89-153 305-524 101-173 197-327 213-342 71-68 2e2-79 279-23 24 16 52 44 64 61 12 18 23 31 25 28 2-2 6 13 7 33 2 21 5 48 6 62 3 35-11 85-45 154-17 33-27 66-24 73 2 8 1 11-5 8-12-8-43 53-36 71 3 8 1 12-4 9s-28 34-51 82c-22 48-51 110-65 137-13 27-21 53-17 59 3 6 2 7-3 4-6-3-32 40-59 96-26 56-74 155-106 221-32 65-56 123-52 129s1 7-7 2c-10-6-12-4-6 11 4 10 4 15 0 11-8-7-87 148-87 171 0 6-3 12-7 12-11 0-31 51-24 62 4 6 2 8-3 5-9-6-33 39-32 60 1 3-3 9-8 12-18 12-52 91-47 108 5 15 4 16-5 3s-11-13-12 0c-1 8-1 18 0 23 0 4-3 7-8 7-9 0-26 48-23 63 1 4-2 7-7 7-10 0-65 113-61 126 1 4-5 11-13 16-9 4-14 19-13 33 2 13 0 23-4 20-11-7-93 163-84 176 5 8 3 9-6 4-10-6-12-4-6 11 4 10 4 15-1 11-9-10-185 344-178 360 2 7-1 12-8 10-7-1-12 5-12 13s-6 22-13 30-11 18-10 21c2 3-3 13-11 22-7 10-10 17-5 17s4 4-2 8c-13 8-120 224-116 235 1 4-1 7-6 7-4 0-13 15-21 33-7 17-40 85-73 151-32 65-57 125-54 133 4 8 1 11-5 8-6-4-13 2-16 14s-9 21-14 21-9 5-9 11c0 7-9 20-21 30-11 10-18 23-14 28 3 7 0 8-9 5s-16-2-16 3c0 6-15 18-34 28-20 11-32 24-29 32 3 7 9 11 13 8s8 1 7 8c-1 29 4 48 11 44 4-3 8 14 9 36 4 113 6 126 17 120 8-5 8-3 0 8-7 8-14 30-17 49s-8 49-13 65c-4 17-8 40-8 52-1 11-4 19-8 16-5-2-8 0-8 6 0 5-5 22-12 38-6 15-11 31-10 36 1 4-3 7-9 7-5 0-8 4-5 9s-1 14-9 21-15 19-15 26c0 8-4 14-10 14-5 0-10 5-10 10 0 12-51 92-65 102-5 4-7 8-3 8 3 0-7 14-23 31s-26 36-22 42c3 5 2 7-4 4-12-8-56 40-48 53 3 6-1 7-9 4-15-6-21 6-17 29 1 5-2 6-7 3-4-3-35 20-68 49-32 30-63 55-67 55-5 0-6 4-3 8 3 5 0 9-7 9-21 0-67 35-60 46 3 6 1 7-5 3-12-7-72 19-72 32 0 4-8 8-17 9-10 1-49 11-88 22-73 22-143 25-208 10zm133-348c0-3 15-12 33-20 17-8 42-25 55-38 12-13 22-22 22-18 0 3 14-7 32-22 45-39 140-140 139-147-1-4 9-17 22-29 42-41 111-162 101-179-4-6-3-8 4-4 14 8 26-72 18-118-11-57-93-113-180-123-26-4-36-2-32 6 4 7 1 9-8 5-19-7-94 61-102 92-3 13-10 24-14 24-9 0-36 61-32 73 1 4-2 7-8 7-5 0-10 8-10 18s-4 22-9 28c-12 12-51 173-56 227-2 23-4 42-5 42s-3 11-6 24c-4 21-3 22 13 10 15-12 15-10-1 8-16 20-17 25-5 40 8 9 9 14 3 10-11-6-11 4-5 79 1 11 31 16 31 5z"/><path d="M4310 6376c0-2 8-10 18-17 15-13 16-12 3 4s-21 21-21 13z"/><path d="M4395 6211c-3-5-2-12 3-15s9 1 9 9c0 17-3 19-12 6z"/><path d="M4396 6122c-3-5 1-9 9-9s12 4 9 9c-3 4-7 8-9 8s-6-4-9-8z"/><path d="M4595 5920c-3-5-1-10 4-10 6 0 11 5 11 10 0 6-2 10-4 10-3 0-8-4-11-10z"/><path d="M4666 6798c3-5 10-6 15-3 13 9 11 12-6 12-8 0-12-4-9-9z"/><path d="M4755 6640c-3-5-1-10 4-10 6 0 11 5 11 10 0 6-2 10-4 10-3 0-8-4-11-10z"/><path d="M5070 6399c0-5 5-7 10-4 6 3 10 8 10 11 0 2-4 4-10 4-5 0-10-5-10-11z"/><path d="M5070 6320c0-5 5-10 11-10 5 0 7 5 4 10-3 6-8 10-11 10-2 0-4-4-4-10z"/><path d="M5233 6235c0-8 4-12 9-9s6 10 3 15c-9 13-12 11-12-6z"/><path d="M5230 6159c0-5 5-7 10-4 6 3 10 8 10 11 0 2-4 4-10 4-5 0-10-5-10-11z"/><path d="M5155 6e3c-3-5-1-10 4-10 6 0 11 5 11 10 0 6-2 10-4 10-3 0-8-4-11-10z"/><path d="M5235 6e3c3-5 8-10 11-10 2 0 4 5 4 10 0 6-5 10-11 10-5 0-7-4-4-10z"/><path d="M5273 5905c0-8 4-12 9-9s6 10 3 15c-9 13-12 11-12-6z"/><path d="M5070 5839c0-5 5-7 10-4 6 3 10 8 10 11 0 2-4 4-10 4-5 0-10-5-10-11z"/><path d="M5310 5840c0-5 5-10 11-10 5 0 7 5 4 10-3 6-8 10-11 10-2 0-4-4-4-10z"/><path d="M5070 5760c0-5 5-10 11-10 5 0 7 5 4 10-3 6-8 10-11 10-2 0-4-4-4-10z"/><path d="M5119 5713c-13-16-12-17 4-4s21 21 13 21c-2 0-10-8-17-17z"/><path d="M5285 5719c-3-4 2-6 10-5 21 3 28 13 10 13-9 0-18-4-20-8z"/><path d="M5195 5641c-3-5-2-12 3-15s9 1 9 9c0 17-3 19-12 6z"/><path d="M5230 5561c0-6 4-13 10-16s7 1 4 9c-7 18-14 21-14 7z"/><path d="M5310 5359c0-5 5-7 10-4 6 3 10 8 10 11 0 2-4 4-10 4-5 0-10-5-10-11z"/><path d="M5553 5355c0-8 4-12 9-9s6 10 3 15c-9 13-12 11-12-6z"/><path d="M2498 5355c-2-1-43-5-93-9-49-4-101-8-115-10s-50-6-80-10c-406-53-878-212-1209-408-367-217-625-471-762-753-76-158-103-274-104-445 0-122 8-180 34-270 66-228 165-361 325-439 107-53 107-53 216-75 91-18 141-25 198-28 23-1 42-7 42-12 0-8 3-8 8-1 8 12 27 13 37 3 4-4 15-3 25 2s19 8 21 5c2-2 87-6 189-10 102-3 201-8 220-10 91-10 126-17 139-28 8-7 16-11 18-9 9 6 23 1 18-8-3-6 1-7 9-4 33 13 146-101 146-148 0-7 5-19 12-26s9-12 5-12c-3 0-2-12 4-27 10-26 13-196 5-258-2-16-7-59-11-95s-9-72-10-80c-9-51-32-204-41-275-3-22-8-51-11-65-9-49-11-396-2-455 14-89 16-96 29-145 81-314 319-609 608-757 47-24 91-43 98-43 8 0 14-4 14-10 0-5 7-6 17-3 9 4 14 2 10-3-3-5 2-10 11-10 31-2 86-15 92-22 3-4 16-8 30-9s50-5 80-9c78-10 321-11 327-1 3 4 12 2 21-5 9-8 13-8 9-2-9 15 69 24 85 9 8-7 9-6 4 2-9 17 92 37 111 22 11-10 12-9 7 5-5 12 0 16 22 17 16 1 32 1 37 0 4 0 7 3 7 7 0 5 23 14 51 21s63 20 80 28c16 8 33 12 39 8 5-3 10-2 10 4 0 9 77 43 94 41 5-1 12 3 15 8s42 27 86 48 83 42 86 47c3 4 15 9 27 10 12 0 19 3 17 6-6 6 168 117 178 113 4-1 7 3 7 9 0 5 5 7 10 4 6-4 9-2 8 3-2 5 18 25 45 45 26 20 47 35 47 33s16 12 36 30c58 55 102 86 113 79 6-3 8 0 5 8-6 17 43 60 59 50 5-3 7-1 3 5-8 14 52 74 66 66 7-4 8-2 4 4-4 7-2 12 3 12 6 0 11 4 11 9s27 37 60 71 60 66 60 70c0 5 3 10 8 12 4 2 36 39 72 83s67 82 70 85 10 13 15 22c44 73 121 176 128 171 6-3 7-1 4 5-10 15 3 43 17 35 6-3 8-3 4 2-4 4 1 22 11 39 11 17 40 73 66 124 28 54 51 89 57 85 7-3 8-1 4 6-7 10 17 91 34 116 4 6 20 47 35 92 15 46 31 80 35 78 5-3 6 5 2 17-4 16-2 19 8 13 8-5 11-4 6 3-6 10 7 83 21 122 4 8 7 20 8 25 4 30 17 92 22 105 3 8 6 27 6 43 0 15 2 27 6 27 3 0 7 24 8 53 2 28 5 72 7 97 3 25 5 76 5 113 1 52 4 66 14 61 9-6 9-5 0 7-6 8-13 66-15 135-3 67-8 125-11 130-3 6-2 16 3 24s5 19 0 25c-4 5-11 28-14 49-4 21-9 48-12 60s-6 32-8 46-8 45-15 69c-7 23-10 50-7 58s2 12-3 9c-8-5-35 79-36 109 0 6-4 13-9 16-5 4-9 20-10 37 0 17-4 28-7 27-4-3-27 46-34 75-5 18-20 51-41 94-14 26-23 55-19 64 3 9 3 13-1 9-11-10-66 91-58 106 4 7 4 9-1 5-8-8-122 170-117 184 1 5-2 8-7 8-4 0-26 26-49 58-22 32-78 101-125 154-174 199-335 339-552 481-310 202-726 354-1075 392-36 4-74 9-85 12-23 5-432 13-437 8zm397-358c22-3 65-8 95-12 30-3 69-9 85-12 17-3 37-6 45-7 29-4 165-38 185-46 11-5 34-12 50-16 36-9 30-7 82-24 24-7 40-17 36-23-3-6-1-7 5-3s31-2 54-12c75-34 132-59 151-65 10-4 16-10 14-14-3-5 6-9 20-10 14 0 29-6 33-13 4-6 11-12 16-12 16 0 144-80 144-90 0-5 4-7 9-4 11 7 53-29 44-38-4-4 0-4 10 0 9 3 17 1 17-4 0-6 8-13 18-16 10-4 33-19 50-34s54-45 81-67c30-23 49-45 46-53-3-7 0-10 6-6 12 7 106-84 101-99-1-5 1-6 6-3 8 5 72-56 72-68 0-2 20-25 44-52 25-26 42-52 40-56-3-4 0-8 6-8s8-5 4-12c-4-6-3-8 3-5 9 6 52-48 64-78 2-5 10-18 19-28 71-83 283-557 248-557-5 0-3-7 5-15 9-8 18-34 22-57 4-24 10-52 12-63 15-62 16-78 2-71-8 4-7 1 2-6 21-17 30-87 34-286 3-116 1-161-7-156-7 5-8 2-1-9 11-22 4-99-9-91-6 4-6-1 1-13 6-11 8-22 6-25-3-2-7-22-10-44-12-76-36-168-48-183-8-10-8-13 0-8 7 5 9 0 6-13-3-11-10-20-15-20s-7-4-4-9c6-9-41-162-53-171-3-3-7-12-9-20-1-8-7-24-12-35s-19-42-31-70c-28-66-126-240-145-259-8-9-15-19-15-23 0-12-43-73-51-73-5 0-8-5-8-11 0-17-67-99-74-91-4 3-4-1 0-11 4-12 1-17-11-17-9 0-14-4-11-8 3-5-20-35-49-67-30-32-55-61-55-64 0-10-207-206-278-263-41-32-78-55-84-52-6 4-8 2-4-4 7-12-142-120-239-173-33-17-69-38-80-46-24-16-38-17-29 0 4 6 4 9 0 5-4-3-7-10-6-14 2-10-118-66-146-68-12 0-20-4-18-8 6-10-64-30-77-22-8 4-9 3-5-4s5-12 1-12c-3 0-39-9-80-20s-78-19-82-18c-5 0-16-2-26-7-9-4-26-5-37-2s-18 2-15-3c7-12-62-17-81-7-12 7-15 6-10-2s-11-11-54-11c-46 0-59 3-54 13 6 9 4 9-8-1-13-10-52-11-78-2-9 4-34 7-68 8-19 1-31 6-27 12 3 6-1 7-9 4-21-8-117 27-109 39 3 6 1 7-5 3-16-10-64 12-56 26 5 7 3 8-5 3-16-9-153 84-147 101 2 6-3 11-12 10-9 0-16 5-15 12 2 6-2 12-8 12-14 0-57 48-105 118-32 46-35 54-23 70 12 15 12 16-2 4-14-11-19-8-32 20-35 75-66 174-70 228-2 20-6 41-10 47-8 13-2 334 7 393 3 19 13 80 21 135 9 55 18 111 20 125s6 43 10 65c3 22 8 58 10 80 3 22 8 60 11 85 8 64 7 289-1 325-5 17-8 44-9 62-1 17-4 29-8 26-7-4-12 21-11 54 1 7-3 11-7 8-12-7-23 32-14 46 4 7 3 9-3 6-5-3-17 8-27 24-15 25-16 33-4 47 11 15 11 16-3 4-15-11-20-8-40 25-13 21-32 46-43 56-10 9-15 17-10 17s-2 7-14 16c-12 8-19 20-16 26 4 6 2 8-4 4-5-3-24 5-40 19s-33 25-36 25c-4 0-23 11-43 25-20 13-40 22-45 19-4-3-8-1-8 3 0 5-12 10-27 11s-29 5-32 10c-3 4-19 8-36 10-16 2-46 8-66 13s-55 10-77 11c-27 1-39 5-35 12 4 6 1 6-8-1-8-7-20-8-28-4-7 4-30 7-52 5-21-2-39 2-39 7 0 6-5 7-11 3-19-11-242-4-258 9-9 7-12 7-8 1 4-7-14-11-58-10-36 1-65 3-65 6s-19 4-43 4c-51-2-147 14-163 27-6 5-13 6-17 3-7-8-77 18-77 28 0 4-6 8-14 8-41 0-134 131-150 212-3 13-9 44-14 69-13 66-7 183 13 258 40 154 124 289 270 437 191 194 438 349 756 477 165 67 385 135 489 152 19 3 51 10 70 15 54 14 245 40 335 46 44 3 81 7 83 9 5 5 339-2 387-8z"/><path d="M3035 4951c-3-5-2-12 3-15s9 1 9 9c0 17-3 19-12 6z"/><path d="M3195 4921c-3-5-2-12 3-15s9 1 9 9c0 17-3 19-12 6z"/><path d="M2915 4880c-3-5-1-10 4-10 6 0 11 5 11 10 0 6-2 10-4 10-3 0-8-4-11-10z"/><path d="M2395 4871c-3-5-2-12 3-15s9 1 9 9c0 17-3 19-12 6z"/><path d="M3106 4842c-3-5 1-9 9-9s12 4 9 9c-3 4-7 8-9 8s-6-4-9-8z"/><path d="M2873 4825c0-8 4-12 9-9s6 10 3 15c-9 13-12 11-12-6z"/><path d="M2593 4805c0-8 4-12 9-9s6 10 3 15c-9 13-12 11-12-6z"/><path d="M2516 4798c3-5 10-6 15-3 13 9 11 12-6 12-8 0-12-4-9-9z"/><path d="M2675 48e2c3-5 8-10 11-10 2 0 4 5 4 10 0 6-5 10-11 10-5 0-7-4-4-10z"/><path d="M2906 4802c-3-5 1-9 9-9s12 4 9 9c-3 4-7 8-9 8s-6-4-9-8z"/><path d="M3390 48e2c0-5 5-10 11-10 5 0 7 5 4 10-3 6-8 10-11 10-2 0-4-4-4-10z"/><path d="M2230 4759c0-5 5-7 10-4 6 3 10 8 10 11 0 2-4 4-10 4-5 0-10-5-10-11z"/><path d="M3016 4762c-3-5 1-9 9-9s12 4 9 9c-3 4-7 8-9 8s-6-4-9-8z"/><path d="M3515 4761c-3-5-2-12 3-15s9 1 9 9c0 17-3 19-12 6z"/><path d="M2510 4719c0-5 5-7 10-4 6 3 10 8 10 11 0 2-4 4-10 4-5 0-10-5-10-11z"/><path d="M3310 4719c0-5 5-7 10-4 6 3 10 8 10 11 0 2-4 4-10 4-5 0-10-5-10-11z"/><path d="M3386 4722c-3-5 1-9 9-9s12 4 9 9c-3 4-7 8-9 8s-6-4-9-8z"/><path d="M3679 4718c-5-18-6-38-1-34 7 8 12 36 6 36-2 0-4-1-5-2z"/><path d="M1636 4687c3-10 9-15 12-12s0 11-7 18c-10 9-11 8-5-6z"/><path d="M1836 4678c3-5 10-6 15-3 13 9 11 12-6 12-8 0-12-4-9-9z"/><path d="M2633 4675c0-8 4-12 9-9s6 10 3 15c-9 13-12 11-12-6z"/><path d="M2835 4640c3-5 8-10 11-10 2 0 4 5 4 10 0 6-5 10-11 10-5 0-7-4-4-10z"/><path d="M2096 4602c-3-5 1-9 9-9s12 4 9 9c-3 4-7 8-9 8s-6-4-9-8z"/><path d="M3686 4598c3-5 10-6 15-3 13 9 11 12-6 12-8 0-12-4-9-9z"/><path d="M2833 4565c0-8 4-12 9-9s6 10 3 15c-9 13-12 11-12-6z"/><path d="M2195 4560c3-5 8-10 11-10 2 0 4 5 4 10 0 6-5 10-11 10-5 0-7-4-4-10z"/><path d="M3630 4559c0-5 5-7 10-4 6 3 10 8 10 11 0 2-4 4-10 4-5 0-10-5-10-11z"/><path d="M3047 4554c-3-3-88-16-119-17-14-1-24-5-22-8 6-10-46-30-59-23-7 4-9 4-5-1 4-4 0-14-10-21-13-9-20-10-31-1-12 9-13 9-7 0 4-8-11-31-43-63-28-27-48-50-46-50 3 0-9-22-25-49-17-26-30-55-30-63s-3-18-7-22c-9-9-15-36-14-69 1-17-3-26-9-22-7 4-7-2 0-19 7-19 6-26-3-26-7 0-8-3-2-8 6-4 11-20 13-37 4-43 31-125 53-161 10-17 15-34 11-38s-2-6 4-4c7 1 12 0 13-5 4-30 167-144 218-153 16-3 37-7 48-11 38-11 127-11 180 2 30 7 55 10 55 6 0-3 4-1 8 4 4 6 29 21 57 35 54 27 148 118 168 163 6 15 16 27 20 27 5 0 6 3 4 8-3 4 0 18 6 32 10 24 12 33 21 83 3 12 5 23 6 25 4 7 1 89-4 102-3 8-7 29-9 45-1 17-9 40-16 53s-10 30-7 38c3 7-3 18-14 24s-20 17-20 25-4 15-10 15c-5 0-10 4-10 9 0 13-56 67-90 88-17 9-30 20-30 24s-13 10-30 14c-16 4-30 11-30 17s-3 8-6 5c-4-3-16-1-28 5-11 7-24 12-27 11s-31 2-62 6-58 7-60 5z"/><path d="M3835 4551c-3-5-2-12 3-15s9 1 9 9c0 17-3 19-12 6z"/><path d="M1545 4542c8-8-67-32-78-25-6 3-7 2-4-4 8-13-37-38-52-28-7 4-10 1-9-7 2-7-5-12-14-12-10 1-15-3-12-8 4-5-13-28-37-51s-43-44-42-47c2-10-24-40-30-34-3 3-3-3 0-15s1-21-6-21c-6 0-11-11-11-25s-4-25-8-25c-10 0-12-21-12-130-1-95 0-99 23-154 9-21 17-42 17-47 0-9 29-46 68-87 12-13 19-29 16-35-4-7-4-9 1-5 5 5 22-3 39-16 83-63 192-95 296-89 99 7 1e2 7 1e2 16 0 5 9 7 21 4s18-3 15 0c-3 4 12 14 34 24 21 10 55 32 76 51 20 18 41 32 46 30 5-1 7 2 3 8-3 5 0 13 8 16 9 3 21 19 27 35 7 16 15 29 19 29 6 0 30 50 36 76 9 39 18 53 27 48 7-5 8-2 2 7-5 8-7 41-6 74 4 63-9 133-33 191-8 19-14 37-14 41 1 3-3 9-8 12-4 3-24 27-42 52-45 58-164 139-208 139-7 0-13 4-13 8 0 5-54 9-120 9s-118-2-115-5z"/><path d="M3355 4541c-3-5-2-12 3-15s9 1 9 9c0 17-3 19-12 6z"/><path d="M2473 4525c0-8 4-12 9-9s6 10 3 15c-9 13-12 11-12-6z"/><path d="M3756 4518c3-5 10-6 15-3 13 9 11 12-6 12-8 0-12-4-9-9z"/><path d="M2190 4479c0-5 5-7 10-4 6 3 10 8 10 11 0 2-4 4-10 4-5 0-10-5-10-11z"/><path d="M2275 4480c3-5 8-10 11-10 2 0 4 5 4 10 0 6-5 10-11 10-5 0-7-4-4-10z"/><path d="M2670 4479c0-5 5-7 10-4 6 3 10 8 10 11 0 2-4 4-10 4-5 0-10-5-10-11z"/><path d="M3630 4480c0-5 5-10 11-10 5 0 7 5 4 10-3 6-8 10-11 10-2 0-4-4-4-10z"/><path d="M3725 4439c-3-4 2-6 10-5 21 3 28 13 10 13-9 0-18-4-20-8z"/><path d="M3550 4399c0-5 5-7 10-4 6 3 10 8 10 11 0 2-4 4-10 4-5 0-10-5-10-11z"/><path d="M3626 4402c-3-5 1-9 9-9s12 4 9 9c-3 4-7 8-9 8s-6-4-9-8z"/><path d="M4110 4399c0-5 5-7 10-4 6 3 10 8 10 11 0 2-4 4-10 4-5 0-10-5-10-11z"/><path d="M1186 4362c-3-5 1-9 9-9s12 4 9 9c-3 4-7 8-9 8s-6-4-9-8z"/><path d="M2355 4320c3-5 8-10 11-10 2 0 4 5 4 10 0 6-5 10-11 10-5 0-7-4-4-10z"/><path d="M2426 4318c3-5 10-6 15-3 13 9 11 12-6 12-8 0-12-4-9-9z"/><path d="M4106 4322c-3-5 1-9 9-9s12 4 9 9c-3 4-7 8-9 8s-6-4-9-8z"/><path d="M4196 4318c3-5 10-6 15-3 13 9 11 12-6 12-8 0-12-4-9-9z"/><path d="M3515 4311c-3-5-2-12 3-15s9 1 9 9c0 17-3 19-12 6z"/><path d="M1193 4285c0-8 4-12 9-9s6 10 3 15c-9 13-12 11-12-6z"/><path d="M3696 4282c-3-5 1-9 9-9s12 4 9 9c-3 4-7 8-9 8s-6-4-9-8z"/><path d="M3795 4240c3-5 8-10 11-10 2 0 4 5 4 10 0 6-5 10-11 10-5 0-7-4-4-10z"/><path d="M4275 4240c3-5 8-10 11-10 2 0 4 5 4 10 0 6-5 10-11 10-5 0-7-4-4-10z"/><path d="M3993 4225c0-8 4-12 9-9s6 10 3 15c-9 13-12 11-12-6z"/><path d="M947 4199c7-7 15-10 18-7s-2 9-12 12c-14 6-15 5-6-5z"/><path d="M2306 4202c-3-5 1-9 9-9s12 4 9 9c-3 4-7 8-9 8s-6-4-9-8z"/><path d="M2390 4201c0-6 4-13 10-16s7 1 4 9c-7 18-14 21-14 7z"/><path d="M2476 4202c-3-5 1-9 9-9s12 4 9 9c-3 4-7 8-9 8s-6-4-9-8z"/><path d="M4066 4198c3-5 10-6 15-3 13 9 11 12-6 12-8 0-12-4-9-9z"/><path d="M3793 4165c0-8 4-12 9-9s6 10 3 15c-9 13-12 11-12-6z"/><path d="M3866 4158c3-5 10-6 15-3 13 9 11 12-6 12-8 0-12-4-9-9z"/><path d="M1056 4118c3-5 10-6 15-3 13 9 11 12-6 12-8 0-12-4-9-9z"/><path d="M3590 4120c0-5 5-10 10-10 6 0 10 5 10 10 0 6-4 10-10 10-5 0-10-4-10-10z"/><path d="M996 4078c3-5 10-6 15-3 13 9 11 12-6 12-8 0-12-4-9-9z"/><path d="M2115 4080c3-5 8-10 11-10 2 0 4 5 4 10 0 6-5 10-11 10-5 0-7-4-4-10z"/><path d="M3875 4080c3-5 8-10 11-10 2 0 4 5 4 10 0 6-5 10-11 10-5 0-7-4-4-10z"/><path d="M4430 4079c0-5 5-7 10-4 6 3 10 8 10 11 0 2-4 4-10 4-5 0-10-5-10-11z"/><path d="M3593 4035c0-8 4-12 9-9s6 10 3 15c-9 13-12 11-12-6z"/><path d="M2515 4011c-3-5-2-12 3-15s9 1 9 9c0 17-3 19-12 6z"/><path d="M995 4e3c-3-5-1-10 4-10 6 0 11 5 11 10 0 6-2 10-4 10-3 0-8-4-11-10z"/><path d="M2430 3999c0-5 5-7 10-4 6 3 10 8 10 11 0 2-4 4-10 4-5 0-10-5-10-11z"/><path d="M3795 4e3c3-5 8-10 11-10 2 0 4 5 4 10 0 6-5 10-11 10-5 0-7-4-4-10z"/><path d="M884 3962c4-3 14-7 22-8 9-1 13 0 10 4-4 3-14 7-22 8-9 1-13 0-10-4z"/><path d="M2285 3959c-3-4 2-6 10-5 21 3 28 13 10 13-9 0-18-4-20-8z"/><path d="M4286 3962c-3-5 1-9 9-9s12 4 9 9c-3 4-7 8-9 8s-6-4-9-8z"/><path d="M3793 3925c0-8 4-12 9-9s6 10 3 15c-9 13-12 11-12-6z"/><path d="M2190 3919c0-5 5-7 10-4 6 3 10 8 10 11 0 2-4 4-10 4-5 0-10-5-10-11z"/><path d="M2435 3921c-3-5-2-12 3-15s9 1 9 9c0 17-3 19-12 6z"/><path d="M4190 3919c0-5 5-7 10-4 6 3 10 8 10 11 0 2-4 4-10 4-5 0-10-5-10-11z"/><path d="M1115 3911c-3-5-2-12 3-15s9 1 9 9c0 17-3 19-12 6z"/><path d="M3473 3885c0-8 4-12 9-9s6 10 3 15c-9 13-12 11-12-6z"/><path d="M3915 3891c-3-5-2-12 3-15s9 1 9 9c0 17-3 19-12 6z"/><path d="M755 3840c3-5 8-10 11-10 2 0 4 5 4 10 0 6-5 10-11 10-5 0-7-4-4-10z"/><path d="M2070 3839c0-5 5-7 10-4 6 3 10 8 10 11 0 2-4 4-10 4-5 0-10-5-10-11z"/><path d="M2430 3840c0-5 5-10 11-10 5 0 7 5 4 10-3 6-8 10-11 10-2 0-4-4-4-10z"/><path d="M2636 3838c3-5 10-6 15-3 13 9 11 12-6 12-8 0-12-4-9-9z"/><path d="M3630 3839c0-5 5-7 10-4 6 3 10 8 10 11 0 2-4 4-10 4-5 0-10-5-10-11z"/><path d="M4110 3839c0-5 5-7 10-4 6 3 10 8 10 11 0 2-4 4-10 4-5 0-10-5-10-11z"/><path d="M4195 3840c3-5 8-10 11-10 2 0 4 5 4 10 0 6-5 10-11 10-5 0-7-4-4-10z"/><path d="M4510 3840c0-5 5-10 11-10 5 0 7 5 4 10-3 6-8 10-11 10-2 0-4-4-4-10z"/><path d="M1195 3811c-3-5-2-12 3-15s9 1 9 9c0 17-3 19-12 6z"/><path d="M3726 3798c3-5 10-6 15-3 13 9 11 12-6 12-8 0-12-4-9-9z"/><path d="M915 3760c3-5 8-10 11-10 2 0 4 5 4 10 0 6-5 10-11 10-5 0-7-4-4-10z"/><path d="M3556 3758c3-5 10-6 15-3 13 9 11 12-6 12-8 0-12-4-9-9z"/><path d="M636 3727c3-10 9-15 12-12s0 11-7 18c-10 9-11 8-5-6z"/><path d="M2396 3727c3-10 9-15 12-12s0 11-7 18c-10 9-11 8-5-6z"/><path d="M3753 3725c0-8 4-12 9-9s6 10 3 15c-9 13-12 11-12-6z"/><path d="M1196 3722c-3-5 1-9 9-9s12 4 9 9c-3 4-7 8-9 8s-6-4-9-8z"/><path d="M1346 3718c3-5 10-6 15-3 13 9 11 12-6 12-8 0-12-4-9-9z"/><path d="M3426 3718c3-5 10-6 15-3 13 9 11 12-6 12-8 0-12-4-9-9z"/><path d="M913 3685c0-8 4-12 9-9s6 10 3 15c-9 13-12 11-12-6z"/><path d="M2113 3685c0-8 4-12 9-9s6 10 3 15c-9 13-12 11-12-6z"/><path d="M3313 3685c0-8 4-12 9-9s6 10 3 15c-9 13-12 11-12-6z"/><path d="M1870 3679c0-5 5-7 10-4 6 3 10 8 10 11 0 2-4 4-10 4-5 0-10-5-10-11z"/><path d="M1955 3680c3-5 8-10 11-10 2 0 4 5 4 10 0 6-5 10-11 10-5 0-7-4-4-10z"/><path d="M2035 3681c-3-5-2-12 3-15s9 1 9 9c0 17-3 19-12 6z"/><path d="M2195 3680c3-5 8-10 11-10 2 0 4 5 4 10 0 6-5 10-11 10-5 0-7-4-4-10z"/><path d="M2590 3679c0-5 5-7 10-4 6 3 10 8 10 11 0 2-4 4-10 4-5 0-10-5-10-11z"/><path d="M3555 3680c-3-5-1-10 4-10 6 0 11 5 11 10 0 6-2 10-4 10-3 0-8-4-11-10z"/><path d="M4350 3679c0-5 5-7 10-4 6 3 10 8 10 11 0 2-4 4-10 4-5 0-10-5-10-11z"/><path d="M793 3615c0-8 4-12 9-9s6 10 3 15c-9 13-12 11-12-6z"/><path d="M1470 3599c0-5 5-7 10-4 6 3 10 8 10 11 0 2-4 4-10 4-5 0-10-5-10-11z"/><path d="M2430 3599c0-5 5-7 10-4 6 3 10 8 10 11 0 2-4 4-10 4-5 0-10-5-10-11z"/><path d="M2830 36e2c0-5 5-10 11-10 5 0 7 5 4 10-3 6-8 10-11 10-2 0-4-4-4-10z"/><path d="M3075 3601c-3-5-2-12 3-15s9 1 9 9c0 17-3 19-12 6z"/><path d="M3870 3599c0-5 5-7 10-4 6 3 10 8 10 11 0 2-4 4-10 4-5 0-10-5-10-11z"/><path d="M3950 36e2c0-5 5-10 11-10 5 0 7 5 4 10-3 6-8 10-11 10-2 0-4-4-4-10z"/><path d="M4035 36e2c3-5 8-10 11-10 2 0 4 5 4 10 0 6-5 10-11 10-5 0-7-4-4-10z"/><path d="M3675 3591c-3-5-2-12 3-15s9 1 9 9c0 17-3 19-12 6z"/><path d="M553 3555c0-8 4-12 9-9s6 10 3 15c-9 13-12 11-12-6z"/><path d="M2635 3561c-3-5-2-12 3-15s9 1 9 9c0 17-3 19-12 6z"/><path d="M4316 3553c-6-14-5-15 5-6 7 7 10 15 7 18s-9-2-12-12z"/><path d="M1235 3531c-3-5-2-12 3-15s9 1 9 9c0 17-3 19-12 6z"/><path d="M2435 3531c-3-5-2-12 3-15s9 1 9 9c0 17-3 19-12 6z"/><path d="M676 3518c3-5 10-6 15-3 13 9 11 12-6 12-8 0-12-4-9-9z"/><path d="M755 3520c-3-5-1-10 4-10 6 0 11 5 11 10 0 6-2 10-4 10-3 0-8-4-11-10z"/><path d="M1150 3519c0-5 5-7 10-4 6 3 10 8 10 11 0 2-4 4-10 4-5 0-10-5-10-11z"/><path d="M1795 3520c-3-5-1-10 4-10 6 0 11 5 11 10 0 6-2 10-4 10-3 0-8-4-11-10z"/><path d="M3070 3520c0-5 5-10 11-10 5 0 7 5 4 10-3 6-8 10-11 10-2 0-4-4-4-10z"/><path d="M3316 3518c3-5 10-6 15-3 13 9 11 12-6 12-8 0-12-4-9-9z"/><path d="M3395 3520c-3-5-1-10 4-10 6 0 11 5 11 10 0 6-2 10-4 10-3 0-8-4-11-10z"/><path d="M4675 3520c3-5 8-10 11-10 2 0 4 5 4 10 0 6-5 10-11 10-5 0-7-4-4-10z"/><path d="M3959 3506c-2-2-29-6-59-9-62-7-129-24-147-39-7-5-17-7-23-3-5 3-10 2-10-2 0-15-91-74-102-67-7 4-8 2-4-4 3-6-14-41-39-78s-45-74-45-81-3-13-7-13c-5 0-9-19-11-43-1-23-6-43-11-45-8-3-5-66 3-89 3-7 0-13-6-13s-5-6 3-17c12-15 12-16-1-8-12 7-13 6-3-7 7-8 14-27 15-42 1-14 6-26 10-26s8-7 8-15c0-20 56-112 85-139 14-13 21-27 17-31-4-5-2-5 5-1 6 3 19-4 28-16 8-13 19-22 23-21 4 0 6-3 4-9-1-5 1-7 6-4s26-4 48-14c21-11 44-20 51-20s13-4 13-8 8-8 18-9c9-1 34-2 54-4 21-1 35-6 31-12-3-5 4-4 16 2 16 9 21 9 21-1 0-9 3-9 8-2 4 5 23 10 44 10 20-1 34 2 31 7-4 6 21 11 55 10 6-1 12 3 12 7s17 16 38 25c52 25 129 86 136 109 2 10 10 15 16 11 6-3 10-3 9 2-4 12 23 63 33 63 4 0 7 3 6 8-2 12 14 62 21 62 3 0 7 17 9 38 3 48 6 64 15 79 4 6 4 14-1 17-4 3-8 27-8 54 1 28-2 48-5 46-4-2-10 8-13 24-13 54-62 138-101 175-22 20-35 37-30 37 6 1-7 9-28 19-20 9-34 20-30 24 3 4-1 7-10 7-10 0-36 9-60 19-23 11-59 22-81 26-21 3-42 7-46 10-4 2-9 3-11 1z"/><path d="M2656 3482c-3-5 1-9 9-9s12 4 9 9c-3 4-7 8-9 8s-6-4-9-8z"/><path d="M3576 3478c3-5 10-6 15-3 13 9 11 12-6 12-8 0-12-4-9-9z"/><path d="M675 3440c3-5 8-10 11-10 2 0 4 5 4 10 0 6-5 10-11 10-5 0-7-4-4-10z"/><path d="M1070 3440c0-5 5-10 11-10 5 0 7 5 4 10-3 6-8 10-11 10-2 0-4-4-4-10z"/><path d="M1475 3440c-3-5-1-10 4-10 6 0 11 5 11 10 0 6-2 10-4 10-3 0-8-4-11-10z"/><path d="M1870 3439c0-5 5-7 10-4 6 3 10 8 10 11 0 2-4 4-10 4-5 0-10-5-10-11z"/><path d="M2196 3438c3-5 10-6 15-3 13 9 11 12-6 12-8 0-12-4-9-9z"/><path d="M2273 3435c0-8 4-12 9-9s6 10 3 15c-9 13-12 11-12-6z"/><path d="M2355 3440c-3-5-1-10 4-10 6 0 11 5 11 10 0 6-2 10-4 10-3 0-8-4-11-10z"/><path d="M2755 3440c3-5 8-10 11-10 2 0 4 5 4 10 0 6-5 10-11 10-5 0-7-4-4-10z"/><path d="M4350 3439c0-5 5-7 10-4 6 3 10 8 10 11 0 2-4 4-10 4-5 0-10-5-10-11z"/><path d="M4675 3441c-3-5-2-12 3-15s9 1 9 9c0 17-3 19-12 6z"/><path d="M4475 3431c-3-5-2-12 3-15s9 1 9 9c0 17-3 19-12 6z"/><path d="M3036 3407c3-10 9-15 12-12s0 11-7 18c-10 9-11 8-5-6z"/><path d="M1996 3398c3-5 10-6 15-3 13 9 11 12-6 12-8 0-12-4-9-9z"/><path d="M3266 3402c-3-5 1-9 9-9s12 4 9 9c-3 4-7 8-9 8s-6-4-9-8z"/><path d="M1470 3360c0-5 5-10 11-10 5 0 7 5 4 10-3 6-8 10-11 10-2 0-4-4-4-10z"/><path d="M1870 3360c0-5 5-10 11-10 5 0 7 5 4 10-3 6-8 10-11 10-2 0-4-4-4-10z"/><path d="M2190 3359c0-5 5-7 10-4 6 3 10 8 10 11 0 2-4 4-10 4-5 0-10-5-10-11z"/><path d="M2595 3360c-3-5-1-10 4-10 6 0 11 5 11 10 0 6-2 10-4 10-3 0-8-4-11-10z"/><path d="M4355 3360c3-5 8-10 11-10 2 0 4 5 4 10 0 6-5 10-11 10-5 0-7-4-4-10z"/><path d="M4670 3360c0-5 5-10 11-10 5 0 7 5 4 10-3 6-8 10-11 10-2 0-4-4-4-10z"/><path d="M2446 3322c-3-5 1-9 9-9s12 4 9 9c-3 4-7 8-9 8s-6-4-9-8z"/><path d="M2553 3305c0-8 4-12 9-9s6 10 3 15c-9 13-12 11-12-6z"/><path d="M2590 3280c0-5 5-10 11-10 5 0 7 5 4 10-3 6-8 10-11 10-2 0-4-4-4-10z"/><path d="M3070 3279c0-5 5-7 10-4 6 3 10 8 10 11 0 2-4 4-10 4-5 0-10-5-10-11z"/><path d="M4435 3280c-3-5-1-10 4-10 6 0 11 5 11 10 0 6-2 10-4 10-3 0-8-4-11-10z"/><path d="M1595 3271c-3-5-2-12 3-15s9 1 9 9c0 17-3 19-12 6z"/><path d="M2233 3265c0-8 4-12 9-9s6 10 3 15c-9 13-12 11-12-6z"/><path d="M2795 3251c-3-5-2-12 3-15s9 1 9 9c0 17-3 19-12 6z"/><path d="M2306 3238c3-5 10-6 15-3 13 9 11 12-6 12-8 0-12-4-9-9z"/><path d="M4716 3238c3-5 10-6 15-3 13 9 11 12-6 12-8 0-12-4-9-9z"/><path d="M2713 3215c0-8 4-12 9-9s6 10 3 15c-9 13-12 11-12-6z"/><path d="M3075 3211c-3-5-2-12 3-15s9 1 9 9c0 17-3 19-12 6z"/><path d="M3233 3205c0-8 4-12 9-9s6 10 3 15c-9 13-12 11-12-6z"/><path d="M2030 32e2c0-5 5-10 11-10 5 0 7 5 4 10-3 6-8 10-11 10-2 0-4-4-4-10z"/><path d="M2106 3198c3-5 10-6 15-3 13 9 11 12-6 12-8 0-12-4-9-9z"/><path d="M3315 32e2c3-5 8-10 11-10 2 0 4 5 4 10 0 6-5 10-11 10-5 0-7-4-4-10z"/><path d="M2e3 3160c-9-6-10-10-3-10 6 0 15 5 18 10 8 12 4 12-15 0z"/><path d="M2416 3162c-3-5 1-9 9-9s12 4 9 9c-3 4-7 8-9 8s-6-4-9-8z"/><path d="M2515 3120c3-5 8-10 11-10 2 0 4 5 4 10 0 6-5 10-11 10-5 0-7-4-4-10z"/><path d="M2714 3106c1-8 5-18 8-22 4-3 5 1 4 10-1 8-5 18-8 22-4 3-5-1-4-10z"/><path d="M3359 3118c-5-18-6-38-1-34 7 8 12 36 6 36-2 0-4-1-5-2z"/><path d="M1990 3079c0-5 5-7 10-4 6 3 10 8 10 11 0 2-4 4-10 4-5 0-10-5-10-11z"/><path d="M2996 3038c3-5 10-6 15-3 13 9 11 12-6 12-8 0-12-4-9-9z"/><path d="M3070 3039c0-5 5-7 10-4 6 3 10 8 10 11 0 2-4 4-10 4-5 0-10-5-10-11z"/><path d="M4590 3040c0-5 5-10 11-10 5 0 7 5 4 10-3 6-8 10-11 10-2 0-4-4-4-10z"/><path d="M4675 3040c3-5 8-10 11-10 2 0 4 5 4 10 0 6-5 10-11 10-5 0-7-4-4-10z"/><path d="M4755 3040c-3-5-1-10 4-10 6 0 11 5 11 10 0 6-2 10-4 10-3 0-8-4-11-10z"/><path d="M2393 2975c0-8 4-12 9-9s6 10 3 15c-9 13-12 11-12-6z"/><path d="M2110 2959c0-5 5-7 10-4 6 3 10 8 10 11 0 2-4 4-10 4-5 0-10-5-10-11z"/><path d="M2190 2960c0-5 5-10 11-10 5 0 7 5 4 10-3 6-8 10-11 10-2 0-4-4-4-10z"/><path d="M2590 2959c0-5 5-7 10-4 6 3 10 8 10 11 0 2-4 4-10 4-5 0-10-5-10-11z"/><path d="M2755 2960c3-5 8-10 11-10 2 0 4 5 4 10 0 6-5 10-11 10-5 0-7-4-4-10z"/><path d="M3310 2959c0-5 5-7 10-4 6 3 10 8 10 11 0 2-4 4-10 4-5 0-10-5-10-11z"/><path d="M2946 2922c-3-5 1-9 9-9s12 4 9 9c-3 4-7 8-9 8s-6-4-9-8z"/><path d="M3036 2913c-6-14-5-15 5-6 7 7 10 15 7 18s-9-2-12-12z"/><path d="M3116 2922c-3-5 1-9 9-9s12 4 9 9c-3 4-7 8-9 8s-6-4-9-8z"/><path d="M2275 2880c3-5 8-10 11-10 2 0 4 5 4 10 0 6-5 10-11 10-5 0-7-4-4-10z"/><path d="M2355 2880c-3-5-1-10 4-10 6 0 11 5 11 10 0 6-2 10-4 10-3 0-8-4-11-10z"/><path d="M2756 2882c-3-5 1-9 9-9s12 4 9 9c-3 4-7 8-9 8s-6-4-9-8z"/><path d="M3310 2880c0-5 5-10 11-10 5 0 7 5 4 10-3 6-8 10-11 10-2 0-4-4-4-10z"/><path d="M2190 2799c0-5 5-7 10-4 6 3 10 8 10 11 0 2-4 4-10 4-5 0-10-5-10-11z"/><path d="M2275 28e2c3-5 8-10 11-10 2 0 4 5 4 10 0 6-5 10-11 10-5 0-7-4-4-10z"/><path d="M3066 2798c3-5 10-6 15-3 13 9 11 12-6 12-8 0-12-4-9-9z"/><path d="M4356 2798c3-5 10-6 15-3 13 9 11 12-6 12-8 0-12-4-9-9z"/><path d="M3566 2762c-3-5 1-9 9-9s12 4 9 9c-3 4-7 8-9 8s-6-4-9-8z"/><path d="M2750 2720c0-5 5-10 11-10 5 0 7 5 4 10-3 6-8 10-11 10-2 0-4-4-4-10z"/><path d="M2830 2719c0-5 5-7 10-4 6 3 10 8 10 11 0 2-4 4-10 4-5 0-10-5-10-11z"/><path d="M3075 2720c3-5 8-10 11-10 2 0 4 5 4 10 0 6-5 10-11 10-5 0-7-4-4-10z"/><path d="M4355 2720c-3-5-1-10 4-10 6 0 11 5 11 10 0 6-2 10-4 10-3 0-8-4-11-10z"/><path d="M4595 2720c3-5 8-10 11-10 2 0 4 5 4 10 0 6-5 10-11 10-5 0-7-4-4-10z"/><path d="M4670 2719c0-5 5-7 10-4 6 3 10 8 10 11 0 2-4 4-10 4-5 0-10-5-10-11z"/><path d="M4225 27e2c-3-6 1-7 9-4 18 7 21 14 7 14-6 0-13-4-16-10z"/><path d="M2336 2678c3-5 10-6 15-3 13 9 11 12-6 12-8 0-12-4-9-9z"/><path d="M2625 2680c-3-6 1-7 9-4 18 7 21 14 7 14-6 0-13-4-16-10z"/><path d="M3267 2679c7-7 15-10 18-7s-2 9-12 12c-14 6-15 5-6-5z"/><path d="M3075 2640c-3-5-1-10 4-10 6 0 11 5 11 10 0 6-2 10-4 10-3 0-8-4-11-10z"/><path d="M3395 2640c3-5 8-10 11-10 2 0 4 5 4 10 0 6-5 10-11 10-5 0-7-4-4-10z"/><path d="M2315 2611c-3-5-2-12 3-15s9 1 9 9c0 17-3 19-12 6z"/><path d="M3273 2595c0-8 4-12 9-9s6 10 3 15c-9 13-12 11-12-6z"/><path d="M4546 2602c-3-5 1-9 9-9s12 4 9 9c-3 4-7 8-9 8s-6-4-9-8z"/><path d="M4716 2602c-3-5 1-9 9-9s12 4 9 9c-3 4-7 8-9 8s-6-4-9-8z"/><path d="M4319 2598c-5-18-6-38-1-34 7 8 12 36 6 36-2 0-4-1-5-2z"/><path d="M2195 2560c3-5 8-10 11-10 2 0 4 5 4 10 0 6-5 10-11 10-5 0-7-4-4-10z"/><path d="M2515 2560c3-5 8-10 11-10 2 0 4 5 4 10 0 6-5 10-11 10-5 0-7-4-4-10z"/><path d="M3066 2562c-3-5 1-9 9-9s12 4 9 9c-3 4-7 8-9 8s-6-4-9-8z"/><path d="M3706 2562c-3-5 1-9 9-9s12 4 9 9c-3 4-7 8-9 8s-6-4-9-8z"/><path d="M3875 2560c3-5 8-10 11-10 2 0 4 5 4 10 0 6-5 10-11 10-5 0-7-4-4-10z"/><path d="M4080 2520c-9-6-10-10-3-10 6 0 15 5 18 10 8 12 4 12-15 0z"/><path d="M2270 2480c0-5 5-10 11-10 5 0 7 5 4 10-3 6-8 10-11 10-2 0-4-4-4-10z"/><path d="M2355 2480c-3-5-1-10 4-10 6 0 11 5 11 10 0 6-2 10-4 10-3 0-8-4-11-10z"/><path d="M2670 2479c0-5 5-7 10-4 6 3 10 8 10 11 0 2-4 4-10 4-5 0-10-5-10-11z"/><path d="M3795 2480c3-5 8-10 11-10 2 0 4 5 4 10 0 6-5 10-11 10-5 0-7-4-4-10z"/><path d="M4350 2480c0-5 5-10 11-10 5 0 7 5 4 10-3 6-8 10-11 10-2 0-4-4-4-10z"/><path d="M2955 2451c-3-5-2-12 3-15s9 1 9 9c0 17-3 19-12 6z"/><path d="M3586 2438c3-5 10-6 15-3 13 9 11 12-6 12-8 0-12-4-9-9z"/><path d="M3475 2411c-3-5-2-12 3-15s9 1 9 9c0 17-3 19-12 6z"/><path d="M2830 24e2c0-5 5-10 11-10 5 0 7 5 4 10-3 6-8 10-11 10-2 0-4-4-4-10z"/><path d="M3150 2399c0-5 5-7 10-4 6 3 10 8 10 11 0 2-4 4-10 4-5 0-10-5-10-11z"/><path d="M3390 2399c0-5 5-7 10-4 6 3 10 8 10 11 0 2-4 4-10 4-5 0-10-5-10-11z"/><path d="M3870 24e2c0-5 5-10 11-10 5 0 7 5 4 10-3 6-8 10-11 10-2 0-4-4-4-10z"/><path d="M4590 24e2c0-5 5-10 11-10 5 0 7 5 4 10-3 6-8 10-11 10-2 0-4-4-4-10z"/><path d="M2446 2362c-3-5 1-9 9-9s12 4 9 9c-3 4-7 8-9 8s-6-4-9-8z"/><path d="M3245 2359c-3-4 2-6 10-5 21 3 28 13 10 13-9 0-18-4-20-8z"/><path d="M3966 2358c3-5 10-6 15-3 13 9 11 12-6 12-8 0-12-4-9-9z"/><path d="M4159 2358c-5-18-6-38-1-34 7 8 12 36 6 36-2 0-4-1-5-2z"/><path d="M2835 2320c-3-5-1-10 4-10 6 0 11 5 11 10 0 6-2 10-4 10-3 0-8-4-11-10z"/><path d="M2915 2320c-3-5-1-10 4-10 6 0 11 5 11 10 0 6-2 10-4 10-3 0-8-4-11-10z"/><path d="M2633 2285c0-8 4-12 9-9s6 10 3 15c-9 13-12 11-12-6z"/><path d="M3396 2283c-4-4-17-8-29-10s-34-5-48-7-36-9-48-15c-11-7-21-9-21-5 0 3-12-1-26-11-14-9-32-14-39-11-8 3-12 0-9-7 2-7-9-20-25-30-16-9-44-34-62-54-18-21-38-37-43-35-6 2-8 1-4-3 3-4-6-32-22-63-27-56-46-124-41-151 1-8-2-10-10-5s-9 3-3-7c4-8 9-35 9-61s4-50 8-54 7-17 7-30c0-12 7-34 14-50 8-15 13-31 11-35-3-4 2-10 11-13 9-4 14-13 10-22-3-8-2-12 4-9s10 2 10-4 25-34 55-64c74-72 151-110 250-122 79-11 105-12 105-5 0 4 14 6 30 5 17-1 30 2 30 7s4 7 8 4c5-3 20 1 35 9s27 12 27 10c0-6 93 57 128 87 18 15 32 31 32 37s4 11 9 11c13 0 70 121 81 175 29 130-13 293-98 382-17 17-29 34-26 37 2 3 1 4-2 1-4-2-21 7-38 20-17 14-35 29-41 33-30 24-120 51-185 56-14 1-30 5-36 9-6 3-14 3-18 0z"/><path d="M4396 2278c3-5 10-6 15-3 13 9 11 12-6 12-8 0-12-4-9-9z"/><path d="M2715 2261c-3-5-2-12 3-15s9 1 9 9c0 17-3 19-12 6z"/><path d="M3116 2242c-3-5 1-9 9-9s12 4 9 9c-3 4-7 8-9 8s-6-4-9-8z"/><path d="M4035 2240c3-5 8-10 11-10 2 0 4 5 4 10 0 6-5 10-11 10-5 0-7-4-4-10z"/><path d="M4115 2240c-3-5-1-10 4-10 6 0 11 5 11 10 0 6-2 10-4 10-3 0-8-4-11-10z"/><path d="M3835 2221c-3-5-2-12 3-15s9 1 9 9c0 17-3 19-12 6z"/><path d="M2416 2202c-3-5 1-9 9-9s12 4 9 9c-3 4-7 8-9 8s-6-4-9-8z"/><path d="M3750 2206c0-2 7-7 16-10 8-3 12-2 9 4-6 10-25 14-25 6z"/><path d="M3936 2198c3-5 10-6 15-3 13 9 11 12-6 12-8 0-12-4-9-9z"/><path d="M2515 2160c3-5 8-10 11-10 2 0 4 5 4 10 0 6-5 10-11 10-5 0-7-4-4-10z"/><path d="M2595 2160c-3-5-1-10 4-10 6 0 11 5 11 10 0 6-2 10-4 10-3 0-8-4-11-10z"/><path d="M4110 2159c0-5 5-7 10-4 6 3 10 8 10 11 0 2-4 4-10 4-5 0-10-5-10-11z"/><path d="M4270 2159c0-5 5-7 10-4 6 3 10 8 10 11 0 2-4 4-10 4-5 0-10-5-10-11z"/><path d="M4350 2160c0-5 5-10 11-10 5 0 7 5 4 10-3 6-8 10-11 10-2 0-4-4-4-10z"/><path d="M2793 2115c0-8 4-12 9-9s6 10 3 15c-9 13-12 11-12-6z"/><path d="M2995 2120c-3-5-1-10 4-10 6 0 11 5 11 10 0 6-2 10-4 10-3 0-8-4-11-10z"/><path d="M4106 2082c-3-5 1-9 9-9s12 4 9 9c-3 4-7 8-9 8s-6-4-9-8z"/><path d="M2766 2042c-3-5 1-9 9-9s12 4 9 9c-3 4-7 8-9 8s-6-4-9-8z"/><path d="M4206 2038c3-5 10-6 15-3 13 9 11 12-6 12-8 0-12-4-9-9z"/><path d="M2393 2015c0-8 4-12 9-9s6 10 3 15c-9 13-12 11-12-6z"/><path d="M4435 2e3c-3-5-1-10 4-10 6 0 11 5 11 10 0 6-2 10-4 10-3 0-8-4-11-10z"/><path d="M3993 1985c0-8 4-12 9-9s6 10 3 15c-9 13-12 11-12-6z"/><path d="M4066 1958c3-5 10-6 15-3 13 9 11 12-6 12-8 0-12-4-9-9z"/><path d="M4236 1962c-3-5 1-9 9-9s12 4 9 9c-3 4-7 8-9 8s-6-4-9-8z"/><path d="M2275 1920c3-5 8-10 11-10 2 0 4 5 4 10 0 6-5 10-11 10-5 0-7-4-4-10z"/><path d="M2355 1920c-3-5-1-10 4-10 6 0 11 5 11 10 0 6-2 10-4 10-3 0-8-4-11-10z"/><path d="M2830 1920c0-5 5-10 11-10 5 0 7 5 4 10-3 6-8 10-11 10-2 0-4-4-4-10z"/><path d="M2910 1919c0-5 5-7 10-4 6 3 10 8 10 11 0 2-4 4-10 4-5 0-10-5-10-11z"/><path d="M4556 1918c3-5 10-6 15-3 13 9 11 12-6 12-8 0-12-4-9-9z"/><path d="M2646 1878c3-5 10-6 15-3 13 9 11 12-6 12-8 0-12-4-9-9z"/><path d="M2506 1838c3-5 10-6 15-3 13 9 11 12-6 12-8 0-12-4-9-9z"/><path d="M2595 1840c3-5 8-10 11-10 2 0 4 5 4 10 0 6-5 10-11 10-5 0-7-4-4-10z"/><path d="M2315 1811c-3-5-2-12 3-15s9 1 9 9c0 17-3 19-12 6z"/><path d="M4386 1798c3-5 10-6 15-3 13 9 11 12-6 12-8 0-12-4-9-9z"/><path d="M2190 1760c0-5 5-10 11-10 5 0 7 5 4 10-3 6-8 10-11 10-2 0-4-4-4-10z"/><path d="M2510 1760c0-5 5-10 11-10 5 0 7 5 4 10-3 6-8 10-11 10-2 0-4-4-4-10z"/><path d="M4190 1759c0-5 5-7 10-4 6 3 10 8 10 11 0 2-4 4-10 4-5 0-10-5-10-11z"/><path d="M4404 1722c4-3 14-7 22-8 9-1 13 0 10 4-4 3-14 7-22 8-9 1-13 0-10-4z"/><path d="M2195 1680c-3-5-1-10 4-10 6 0 11 5 11 10 0 6-2 10-4 10-3 0-8-4-11-10z"/><path d="M2910 1680c0-5 5-10 11-10 5 0 7 5 4 10-3 6-8 10-11 10-2 0-4-4-4-10z"/><path d="M3955 1680c3-5 8-10 11-10 2 0 4 5 4 10 0 6-5 10-11 10-5 0-7-4-4-10z"/><path d="M2393 1665c0-8 4-12 9-9s6 10 3 15c-9 13-12 11-12-6z"/><path d="M2715 1671c-3-5-2-12 3-15s9 1 9 9c0 17-3 19-12 6z"/><path d="M2636 1638c3-5 10-6 15-3 13 9 11 12-6 12-8 0-12-4-9-9z"/><path d="M4233 1635c0-8 4-12 9-9s6 10 3 15c-9 13-12 11-12-6z"/><path d="M4320 1640c-9-6-10-10-3-10 6 0 15 5 18 10 8 12 4 12-15 0z"/><path d="M3953 1605c0-8 4-12 9-9s6 10 3 15c-9 13-12 11-12-6z"/><path d="M2835 16e2c3-5 8-10 11-10 2 0 4 5 4 10 0 6-5 10-11 10-5 0-7-4-4-10z"/><path d="M2365 1559c-3-4 2-6 10-5 21 3 28 13 10 13-9 0-18-4-20-8z"/><path d="M2546 1562c-3-5 1-9 9-9s15 4 15 9c0 4-4 8-9 8-6 0-12-4-15-8z"/><path d="M2115 1521c-3-5-2-12 3-15s9 1 9 9c0 17-3 19-12 6z"/><path d="M2270 1519c0-5 5-7 10-4 6 3 10 8 10 11 0 2-4 4-10 4-5 0-10-5-10-11z"/><path d="M2835 1520c-3-5-1-10 4-10 6 0 11 5 11 10 0 6-2 10-4 10-3 0-8-4-11-10z"/><path d="M2915 1520c-3-5-1-10 4-10 6 0 11 5 11 10 0 6-2 10-4 10-3 0-8-4-11-10z"/><path d="M3875 1520c-3-5-1-10 4-10 6 0 11 5 11 10 0 6-2 10-4 10-3 0-8-4-11-10z"/><path d="M2550 1481c0-6 4-12 8-15 5-3 9 1 9 9s-4 15-9 15c-4 0-8-4-8-9z"/><path d="M2636 1482c-3-5 1-9 9-9s12 4 9 9c-3 4-7 8-9 8s-6-4-9-8z"/><path d="M2715 1461c-3-5-2-12 3-15s9 1 9 9c0 17-3 19-12 6z"/><path d="M2910 1440c0-5 5-10 11-10 5 0 7 5 4 10-3 6-8 10-11 10-2 0-4-4-4-10z"/><path d="M3870 1440c0-5 5-10 11-10 5 0 7 5 4 10-3 6-8 10-11 10-2 0-4-4-4-10z"/><path d="M3006 1398c3-5 10-6 15-3 13 9 11 12-6 12-8 0-12-4-9-9z"/><path d="M3966 1398c3-5 10-6 15-3 13 9 11 12-6 12-8 0-12-4-9-9z"/><path d="M2395 1381c-3-5-2-12 3-15s9 1 9 9c0 17-3 19-12 6z"/><path d="M3550 1359c0-5 5-7 10-4 6 3 10 8 10 11 0 2-4 4-10 4-5 0-10-5-10-11z"/><path d="M2233 1325c0-8 4-12 9-9s6 10 3 15c-9 13-12 11-12-6z"/><path d="M3433 1325c0-8 4-12 9-9s6 10 3 15c-9 13-12 11-12-6z"/><path d="M2160 1320c-9-6-10-10-3-10 6 0 15 5 18 10 8 12 4 12-15 0z"/><path d="M3315 1291c-3-5-2-12 3-15s9 1 9 9c0 17-3 19-12 6z"/><path d="M2430 1280c0-5 5-10 11-10 5 0 7 5 4 10-3 6-8 10-11 10-2 0-4-4-4-10z"/><path d="M2510 1279c0-5 5-7 10-4 6 3 10 8 10 11 0 2-4 4-10 4-5 0-10-5-10-11z"/><path d="M2595 1280c-3-5-1-10 4-10 6 0 11 5 11 10 0 6-2 10-4 10-3 0-8-4-11-10z"/><path d="M3230 1279c0-5 5-7 10-4 6 3 10 8 10 11 0 2-4 4-10 4-5 0-10-5-10-11z"/><path d="M3555 1280c3-5 8-10 11-10 2 0 4 5 4 10 0 6-5 10-11 10-5 0-7-4-4-10z"/><path d="M3835 1261c-3-5-2-12 3-15s9 1 9 9c0 17-3 19-12 6z"/><path d="M3085 1239c-3-4 2-6 10-5 21 3 28 13 10 13-9 0-18-4-20-8z"/><path d="M2910 1199c0-5 5-7 10-4 6 3 10 8 10 11 0 2-4 4-10 4-5 0-10-5-10-11z"/><path d="M2990 12e2c0-5 5-10 11-10 5 0 7 5 4 10-3 6-8 10-11 10-2 0-4-4-4-10z"/><path d="M3354 1186c1-8 5-18 8-22 4-3 5 1 4 10-1 8-5 18-8 22-4 3-5-1-4-10z"/><path d="M2430 1120c0-5 5-10 11-10 5 0 7 5 4 10-3 6-8 10-11 10-2 0-4-4-4-10z"/><path d="M2510 1119c0-5 5-7 10-4 6 3 10 8 10 11 0 2-4 4-10 4-5 0-10-5-10-11z"/><path d="M3635 1120c-3-5-1-10 4-10 6 0 11 5 11 10 0 6-2 10-4 10-3 0-8-4-11-10z"/><path d="M2875 1111c-3-5-2-12 3-15s9 1 9 9c0 17-3 19-12 6z"/><path d="M3056 1082c-3-5 1-9 9-9s12 4 9 9c-3 4-7 8-9 8s-6-4-9-8z"/><path d="M2595 1040c-3-5-1-10 4-10 6 0 11 5 11 10 0 6-2 10-4 10-3 0-8-4-11-10z"/><path d="M3155 1040c3-5 8-10 11-10 2 0 4 5 4 10 0 6-5 10-11 10-5 0-7-4-4-10z"/><path d="M3230 1039c0-5 5-7 10-4 6 3 10 8 10 11 0 2-4 4-10 4-5 0-10-5-10-11z"/><path d="M3395 1040c3-5 8-10 11-10 2 0 4 5 4 10 0 6-5 10-11 10-5 0-7-4-4-10z"/><path d="M2793 995c0-8 4-12 9-9s6 10 3 15c-9 13-12 11-12-6z"/><path d="M3395 960c-3-5-1-10 4-10 6 0 11 5 11 10 0 6-2 10-4 10-3 0-8-4-11-10z"/><path d="M2506 878c3-5 10-6 15-3 13 9 11 12-6 12-8 0-12-4-9-9z"/><path d="M2670 879c0-5 5-7 10-4 6 3 10 8 10 11 0 2-4 4-10 4-5 0-10-5-10-11z"/><path d="M2750 880c0-5 5-10 11-10 5 0 7 5 4 10-3 6-8 10-11 10-2 0-4-4-4-10z"/><path d="M2910 880c0-5 5-10 11-10 5 0 7 5 4 10-3 6-8 10-11 10-2 0-4-4-4-10z"/><path d="M3315 880c3-5 8-10 11-10 2 0 4 5 4 10 0 6-5 10-11 10-5 0-7-4-4-10z"/><path d="M3435 880c-3-5-1-10 4-10 6 0 11 5 11 10 0 6-2 10-4 10-3 0-8-4-11-10z"/><path d="M3113 835c0-8 4-12 9-9s6 10 3 15c-9 13-12 11-12-6z"/><path d="M5555 5280c-3-5-1-10 4-10 6 0 11 5 11 10 0 6-2 10-4 10-3 0-8-4-11-10z"/><path d="M5635 5120c-3-5-1-10 4-10 6 0 11 5 11 10 0 6-2 10-4 10-3 0-8-4-11-10z"/><path d="M5710 5039c0-5 5-7 10-4 6 3 10 8 10 11 0 2-4 4-10 4-5 0-10-5-10-11z"/><path d="M5506 4998c3-5 10-6 15-3 13 9 11 12-6 12-8 0-12-4-9-9z"/><path d="M5826 4842c-3-5 1-9 9-9s12 4 9 9c-3 4-7 8-9 8s-6-4-9-8z"/><path d="M5665 4760c-3-6 1-7 9-4 18 7 21 14 7 14-6 0-13-4-16-10z"/><path d="M5875 4720c3-5 8-10 11-10 2 0 4 5 4 10 0 6-5 10-11 10-5 0-7-4-4-10z"/><path d="M5873 4645c0-8 4-12 9-9s6 10 3 15c-9 13-12 11-12-6z"/><path d="M5666 4598c3-5 10-6 15-3 13 9 11 12-6 12-8 0-12-4-9-9z"/><path d="M5793 4555c0-8 4-12 9-9s6 10 3 15c-9 13-12 11-12-6z"/><path d="M5875 4560c-3-5-1-10 4-10 6 0 11 5 11 10 0 6-2 10-4 10-3 0-8-4-11-10z"/><path d="M6016 4282c-3-5 1-9 9-9s12 4 9 9c-3 4-7 8-9 8s-6-4-9-8z"/><path d="M5870 4240c0-5 5-10 11-10 5 0 7 5 4 10-3 6-8 10-11 10-2 0-4-4-4-10z"/><path d="M5871 4173c7-12 15-20 18-17 3 2-3 12-13 22-17 16-18 16-5-5z"/><path d="M5955 4161c-3-5-2-12 3-15s9 1 9 9c0 17-3 19-12 6z"/><path d="M6126 4118c3-5 10-6 15-3 13 9 11 12-6 12-8 0-12-4-9-9z"/><path d="M5996 4038c3-5 10-6 15-3 13 9 11 12-6 12-8 0-12-4-9-9z"/><path d="M5974 3962c4-3 14-7 22-8 9-1 13 0 10 4-4 3-14 7-22 8-9 1-13 0-10-4z"/><path d="M5156 3838c3-5 10-6 15-3 13 9 11 12-6 12-8 0-12-4-9-9z"/><path d="M6110 3839c0-5 5-7 10-4 6 3 10 8 10 11 0 2-4 4-10 4-5 0-10-5-10-11z"/><path d="M6195 3840c3-5 8-10 11-10 2 0 4 5 4 10 0 6-5 10-11 10-5 0-7-4-4-10z"/><path d="M5156 3762c-3-5 1-9 9-9s12 4 9 9c-3 4-7 8-9 8s-6-4-9-8z"/><path d="M6275 3760c-3-5-1-10 4-10 6 0 11 5 11 10 0 6-2 10-4 10-3 0-8-4-11-10z"/><path d="M6270 3680c0-5 5-10 11-10 5 0 7 5 4 10-3 6-8 10-11 10-2 0-4-4-4-10z"/><path d="M6433 3565c0-8 4-12 9-9s6 10 3 15c-9 13-12 11-12-6z"/><path d="M6316 3558c3-5 10-6 15-3 13 9 11 12-6 12-8 0-12-4-9-9z"/><path d="M5235 3520c-3-5-1-10 4-10 6 0 11 5 11 10 0 6-2 10-4 10-3 0-8-4-11-10z"/><path d="M5390 3280c0-5 5-10 11-10 5 0 7 5 4 10-3 6-8 10-11 10-2 0-4-4-4-10z"/><path d="M6515 3280c-3-5-1-10 4-10 6 0 11 5 11 10 0 6-2 10-4 10-3 0-8-4-11-10z"/><path d="M5395 32e2c-3-5-1-10 4-10 6 0 11 5 11 10 0 6-2 10-4 10-3 0-8-4-11-10z"/><path d="M5267 3079c7-7 15-10 18-7s-2 9-12 12c-14 6-15 5-6-5z"/><path d="M6473 3075c0-8 4-12 9-9s6 10 3 15c-9 13-12 11-12-6z"/><path d="M6595 2960c3-5 8-10 11-10 2 0 4 5 4 10 0 6-5 10-11 10-5 0-7-4-4-10z"/><path d="M670 2879c0-5 5-7 10-4 6 3 10 8 10 11 0 2-4 4-10 4-5 0-10-5-10-11z"/><path d="M755 2880c3-5 8-10 11-10 2 0 4 5 4 10 0 6-5 10-11 10-5 0-7-4-4-10z"/><path d="M1240 2880c-9-6-10-10-3-10 6 0 15 5 18 10 8 12 4 12-15 0z"/><path d="M5395 2880c3-5 8-10 11-10 2 0 4 5 4 10 0 6-5 10-11 10-5 0-7-4-4-10z"/><path d="M5470 2879c0-5 5-7 10-4 6 3 10 8 10 11 0 2-4 4-10 4-5 0-10-5-10-11z"/><path d="M6596 2882c-3-5 1-9 9-9s12 4 9 9c-3 4-7 8-9 8s-6-4-9-8z"/><path d="M6536 2842c-3-5 1-9 9-9s12 4 9 9c-3 4-7 8-9 8s-6-4-9-8z"/><path d="M1555 28e2c-3-5-1-10 4-10 6 0 11 5 11 10 0 6-2 10-4 10-3 0-8-4-11-10z"/><path d="M5395 28e2c-3-5-1-10 4-10 6 0 11 5 11 10 0 6-2 10-4 10-3 0-8-4-11-10z"/><path d="M5475 2801c-3-5-2-12 3-15s9 1 9 9c0 17-3 19-12 6z"/><path d="M875 2761c-3-5-2-12 3-15s9 1 9 9c0 17-3 19-12 6z"/><path d="M1356 2762c-3-5 1-9 9-9s12 4 9 9c-3 4-7 8-9 8s-6-4-9-8z"/><path d="M1435 2741c-3-5-2-12 3-15s9 1 9 9c0 17-3 19-12 6z"/><path d="M990 2719c0-5 5-7 10-4 6 3 10 8 10 11 0 2-4 4-10 4-5 0-10-5-10-11z"/><path d="M1075 2720c3-5 8-10 11-10 2 0 4 5 4 10 0 6-5 10-11 10-5 0-7-4-4-10z"/><path d="M1630 2719c0-5 5-7 10-4 6 3 10 8 10 11 0 2-4 4-10 4-5 0-10-5-10-11z"/><path d="M5470 2720c0-5 5-10 11-10 5 0 7 5 4 10-3 6-8 10-11 10-2 0-4-4-4-10z"/><path d="M6755 2720c3-5 8-10 11-10 2 0 4 5 4 10 0 6-5 10-11 10-5 0-7-4-4-10z"/><path d="M6835 2720c-3-5-1-10 4-10 6 0 11 5 11 10 0 6-2 10-4 10-3 0-8-4-11-10z"/><path d="M1204 2682c4-3 14-7 22-8 9-1 13 0 10 4-4 3-14 7-22 8-9 1-13 0-10-4z"/><path d="M1635 2651c-3-5-2-12 3-15s9 1 9 9c0 17-3 19-12 6z"/><path d="M1075 2640c-3-5-1-10 4-10 6 0 11 5 11 10 0 6-2 10-4 10-3 0-8-4-11-10z"/><path d="M5310 2640c0-5 5-10 11-10 5 0 7 5 4 10-3 6-8 10-11 10-2 0-4-4-4-10z"/><path d="M5395 2640c-3-5-1-10 4-10 6 0 11 5 11 10 0 6-2 10-4 10-3 0-8-4-11-10z"/><path d="M5515 2481c-3-5-2-12 3-15s9 1 9 9c0 17-3 19-12 6z"/><path d="M5313 2405c0-8 4-12 9-9s6 10 3 15c-9 13-12 11-12-6z"/><path d="M5395 24e2c3-5 8-10 11-10 2 0 4 5 4 10 0 6-5 10-11 10-5 0-7-4-4-10z"/><path d="M5470 24e2c0-5 5-10 11-10 5 0 7 5 4 10-3 6-8 10-11 10-2 0-4-4-4-10z"/><path d="M6670 24e2c0-5 5-10 11-10 5 0 7 5 4 10-3 6-8 10-11 10-2 0-4-4-4-10z"/><path d="M5353 2275c0-8 4-12 9-9s6 10 3 15c-9 13-12 11-12-6z"/><path d="M5230 2159c0-5 5-7 10-4 6 3 10 8 10 11 0 2-4 4-10 4-5 0-10-5-10-11z"/><path d="M5310 2160c0-5 5-10 11-10 5 0 7 5 4 10-3 6-8 10-11 10-2 0-4-4-4-10z"/><path d="M5166 2038c3-5 10-6 15-3 13 9 11 12-6 12-8 0-12-4-9-9z"/><path d="M5070 1999c0-5 5-7 10-4 6 3 10 8 10 11 0 2-4 4-10 4-5 0-10-5-10-11z"/><path d="M5395 2e3c-3-5-1-10 4-10 6 0 11 5 11 10 0 6-2 10-4 10-3 0-8-4-11-10z"/><path d="M5196 1962c-3-5 1-9 9-9s12 4 9 9c-3 4-7 8-9 8s-6-4-9-8z"/><path d="M5070 1920c0-5 5-10 11-10 5 0 7 5 4 10-3 6-8 10-11 10-2 0-4-4-4-10z"/><path d="M4955 1769c-4-6-5-12-2-15 2-3 7 2 10 11 7 17 1 20-8 4z"/><path d="M5153 1755c0-8 4-12 9-9s6 10 3 15c-9 13-12 11-12-6z"/><path d="M5230 1759c0-5 5-7 10-4 6 3 10 8 10 11 0 2-4 4-10 4-5 0-10-5-10-11z"/><path d="M5315 1760c3-5 8-10 11-10 2 0 4 5 4 10 0 6-5 10-11 10-5 0-7-4-4-10z"/><path d="M5396 1762c-3-5 1-9 9-9s12 4 9 9c-3 4-7 8-9 8s-6-4-9-8z"/><path d="M5360 1720c-9-6-10-10-3-10 6 0 15 5 18 10 8 12 4 12-15 0z"/><path d="M5035 1651c-3-5-2-12 3-15s9 1 9 9c0 17-3 19-12 6z"/><path d="M4995 1520c-3-5-1-10 4-10 6 0 11 5 11 10 0 6-2 10-4 10-3 0-8-4-11-10z"/><path d="M4990 1440c0-5 5-10 11-10 5 0 7 5 4 10-3 6-8 10-11 10-2 0-4-4-4-10z"/><path d="M4750 1360c0-5 5-10 11-10 5 0 7 5 4 10-3 6-8 10-11 10-2 0-4-4-4-10z"/><path d="M4956 1313c-6-14-5-15 5-6 7 7 10 15 7 18s-9-2-12-12z"/><path d="M4675 1120c-3-5-1-10 4-10 6 0 11 5 11 10 0 6-2 10-4 10-3 0-8-4-11-10z"/><path d="M4990 1119c0-5 5-7 10-4 6 3 10 8 10 11 0 2-4 4-10 4-5 0-10-5-10-11z"/><path d="M4545 1080c-3-6 1-7 9-4 18 7 21 14 7 14-6 0-13-4-16-10z"/><path d="M4845 1079c-3-4 2-6 10-5 21 3 28 13 10 13-9 0-18-4-20-8z"/><path d="M4435 1040c-3-5-1-10 4-10 6 0 11 5 11 10 0 6-2 10-4 10-3 0-8-4-11-10z"/><path d="M4590 879c0-5 5-7 10-4 6 3 10 8 10 11 0 2-4 4-10 4-5 0-10-5-10-11z"/><path d="M4315 849c-4-6-5-12-2-15 2-3 7 2 10 11 7 17 1 20-8 4z"/><path d="M4716 842c-3-5 1-9 9-9s12 4 9 9c-3 4-7 8-9 8s-6-4-9-8z"/><path d="M4590 8e2c0-5 5-10 11-10 5 0 7 5 4 10-3 6-8 10-11 10-2 0-4-4-4-10z"/><path d="M4275 720c-3-5-1-10 4-10 6 0 11 5 11 10 0 6-2 10-4 10-3 0-8-4-11-10z"/><path d="M4595 720c3-5 8-10 11-10 2 0 4 5 4 10 0 6-5 10-11 10-5 0-7-4-4-10z"/><path d="M3905 6e2c-3-6 1-7 9-4 18 7 21 14 7 14-6 0-13-4-16-10z"/><path d="M3796 562c-3-5 1-9 9-9s12 4 9 9c-3 4-7 8-9 8s-6-4-9-8z"/><path d="M4430 560c0-5 5-10 11-10 5 0 7 5 4 10-3 6-8 10-11 10-2 0-4-4-4-10z"/><path d="M3556 482c-3-5 1-9 9-9s12 4 9 9c-3 4-7 8-9 8s-6-4-9-8z"/><path d="M3873 405c0-8 4-12 9-9s6 10 3 15c-9 13-12 11-12-6z"/><path d="M4115 411c-3-5-2-12 3-15s9 1 9 9c0 17-3 19-12 6z"/><path d="M3950 4e2c0-5 5-10 11-10 5 0 7 5 4 10-3 6-8 10-11 10-2 0-4-4-4-10z"/><path d="M4035 4e2c-3-5-1-10 4-10 6 0 11 5 11 10 0 6-2 10-4 10-3 0-8-4-11-10z"/><path d="M3516 367c3-10 9-15 12-12s0 11-7 18c-10 9-11 8-5-6z"/><path d="M2706 362c-3-5 1-9 9-9s12 4 9 9c-3 4-7 8-9 8s-6-4-9-8z"/><path d="M3235 360c3-5 8-10 11-10 2 0 4 5 4 10 0 6-5 10-11 10-5 0-7-4-4-10z"/><path d="M3596 358c3-5 10-6 15-3 13 9 11 12-6 12-8 0-12-4-9-9z"/><path d="M2835 320c3-5 8-10 11-10 2 0 4 5 4 10 0 6-5 10-11 10-5 0-7-4-4-10z"/><path d="M2995 320c3-5 8-10 11-10 2 0 4 5 4 10 0 6-5 10-11 10-5 0-7-4-4-10z"/><path d="M3070 319c0-5 5-7 10-4 6 3 10 8 10 11 0 2-4 4-10 4-5 0-10-5-10-11z"/><path d="M3795 320c3-5 8-10 11-10 2 0 4 5 4 10 0 6-5 10-11 10-5 0-7-4-4-10z"/><path d="M2836 242c-3-5 1-9 9-9s12 4 9 9c-3 4-7 8-9 8s-6-4-9-8z"/><path d="M2995 240c-3-5-1-10 4-10 6 0 11 5 11 10 0 6-2 10-4 10-3 0-8-4-11-10z"/><path d="M3310 239c0-5 5-7 10-4 6 3 10 8 10 11 0 2-4 4-10 4-5 0-10-5-10-11z"/><path d="M2710 2e2c0-5 5-10 11-10 5 0 7 5 4 10-3 6-8 10-11 10-2 0-4-4-4-10z"/><path d="M3436 202c-3-5 1-9 9-9s12 4 9 9c-3 4-7 8-9 8s-6-4-9-8z"/><path d="M3873 195c0-8 4-12 9-9s6 10 3 15c-9 13-12 11-12-6z"/><path d="M3306 162c-3-5 1-9 9-9s12 4 9 9c-3 4-7 8-9 8s-6-4-9-8z"/><path d="M3555 160c-3-5-1-10 4-10 6 0 11 5 11 10 0 6-2 10-4 10-3 0-8-4-11-10z"/><path d="M2915 121c-3-5-2-12 3-15s9 1 9 9c0 17-3 19-12 6z"/></g></svg>